# xmcd
#
# Track frame offsets:
#	150
#	20849
#	36832
#	53470
#	67074
#	100308
#	119398
#	138690
#	153931
#	168521
#
# Disc length: 2408 seconds
#
# Revision: 1
# Processed by: cddbd v1.5.2PL0 Copyright (c) Steve Scherf et al.
# Submitted via: audiograbber 1.83.01
#
DISCID=8a09660a
DTITLE=Dwayne Dopsie And The Zydeco Hellraisers - The Traveling Man
DYEAR=2006
DGENRE=Zydeco
TTITLE0=My Baby's On The Phone
TTITLE1=I Wish You Was Mine
TTITLE2=Peace Of Mind
TTITLE3=My Louisiana Beauty
TTITLE4=Traveling Man
TTITLE5=Where'd My Baby Go
TTITLE6=My Name Is Hurricane
TTITLE7=Thinking Of You
TTITLE8=Everybody Say
TTITLE9=Zydeco 2 Step
EXTD=
EXTT0=
EXTT1=
EXTT2=
EXTT3=
EXTT4=
EXTT5=
EXTT6=
EXTT7=
EXTT8=
EXTT9=
PLAYORDER=
